<?xml version="1.0" encoding="UTF-8"?>
<svg width="752pt" height="752pt" version="1.1" viewBox="0 0 752 752" xmlns="http://www.w3.org/2000/svg">
 <g>
  <path d="m376 383.4c-4.0859 0-7.3984-3.3125-7.3984-7.4023v-155.39c0-4.0898 3.3125-7.4023 7.3984-7.4023 4.0898 0 7.4023 3.3125 7.4023 7.4023v155.39c0 1.9648-0.78125 3.8477-2.168 5.2344s-3.2695 2.168-5.2344 2.168z"/>
  <path d="m398.2 198.41c0 12.258-9.9375 22.199-22.199 22.199-12.258 0-22.199-9.9414-22.199-22.199 0-12.262 9.9414-22.199 22.199-22.199 12.262 0 22.199 9.9375 22.199 22.199"/>
  <path d="m531.39 383.4h-155.39c-4.0859 0-7.3984-3.3125-7.3984-7.4023 0-4.0859 3.3125-7.3984 7.3984-7.3984h155.39c4.0859 0 7.3984 3.3125 7.3984 7.3984 0 4.0898-3.3125 7.4023-7.3984 7.4023z"/>
  <path d="m575.79 376c0 12.262-9.9375 22.199-22.199 22.199-12.258 0-22.199-9.9375-22.199-22.199 0-12.258 9.9414-22.199 22.199-22.199 12.262 0 22.199 9.9414 22.199 22.199"/>
  <path d="m266.12 493.29c-1.9688 0.011719-3.8594-0.75781-5.2539-2.1445-1.4023-1.3906-2.1914-3.2812-2.1914-5.2539 0-1.9727 0.78906-3.8633 2.1914-5.2539l109.88-109.89c2.9023-2.8984 7.6094-2.8984 10.508 0 2.9023 2.9023 2.9023 7.6094 0 10.508l-109.88 109.89c-1.3984 1.3867-3.2891 2.1562-5.2539 2.1445z"/>
  <path d="m272.63 501.57c0 12.262-9.9414 22.199-22.199 22.199-12.262 0-22.199-9.9375-22.199-22.199s9.9375-22.199 22.199-22.199c12.258 0 22.199 9.9375 22.199 22.199"/>
  <path d="m376 302h73.996v73.996h-73.996z"/>
  <path d="m379.41 479.6c-4.0859 0-7.4023-3.3125-7.4023-7.3984 0-4.0898 3.3164-7.4023 7.4023-7.4023 1.9609 0 3.8438 0.78125 5.2305 2.168 1.3867 1.3867 2.168 3.2695 2.168 5.2344 0 1.9609-0.78125 3.8438-2.168 5.2305-1.3867 1.3867-3.2695 2.168-5.2305 2.168zm-31.523-3.7734c-1.8984-0.53516-3.5039-1.8047-4.4609-3.5273-0.96094-1.7227-1.1914-3.7539-0.64453-5.6484 1.1133-3.918 5.1797-6.1992 9.1016-5.1055 1.9102 0.51562 3.5352 1.7773 4.5078 3.5039 0.97266 1.7227 1.2148 3.7656 0.67188 5.6719-0.92188 3.293-3.9805 5.5273-7.3984 5.4023-0.60547-0.066406-1.1992-0.19141-1.7773-0.37109zm53.277-6.5859c-0.6875-1.8555-0.60938-3.9062 0.22656-5.6992 0.83203-1.7969 2.3516-3.1797 4.2148-3.8477 3.8398-1.332 8.0352 0.68359 9.3945 4.5156 1.3906 3.8398-0.59766 8.0781-4.4375 9.4688-0.80859 0.29297-1.6602 0.44531-2.5156 0.44531-3.1094-0.042969-5.8555-2.0234-6.8828-4.957zm-82.137-6.6602c-1.668-1.0625-2.8398-2.7461-3.2578-4.6797-0.41406-1.9336-0.042969-3.9492 1.0391-5.6055 1.0508-1.6992 2.7422-2.9023 4.6953-3.3359 1.9492-0.43359 3.9922-0.054687 5.6641 1.043 1.6523 1.0742 2.8125 2.7617 3.2148 4.6953 0.40234 1.9297 0.019532 3.9414-1.0703 5.5898-1.375 2.0898-3.7148 3.3398-6.2148 3.3281-1.4375 0.0625-2.8594-0.32812-4.0703-1.1094zm109.14-5.1797c-2.4688-3.25-1.8398-7.8867 1.4062-10.359 3.25-2.4688 7.8867-1.8398 10.359 1.4062 2.4688 3.25 1.8398 7.8828-1.4062 10.359-1.2812 0.96094-2.8359 1.4805-4.4375 1.4805-2.3164 0.015625-4.5078-1.0508-5.9219-2.8867zm-132.68-16.207c-1.2422-1.5273-1.8203-3.4883-1.6133-5.4453 0.20703-1.9609 1.1875-3.7539 2.7227-4.9883 1.5195-1.25 3.4766-1.8398 5.4336-1.6484 1.957 0.19531 3.7578 1.1602 5 2.6875 1.3633 1.5469 2.0156 3.5898 1.8047 5.6445-0.20703 2.0508-1.2656 3.918-2.9141 5.1562-1.3203 1.0625-2.9688 1.6367-4.6602 1.6289-2.2891-0.0625-4.4219-1.1836-5.7734-3.0352zm154.51-3.625c-3.3242-2.3555-4.1172-6.9531-1.7773-10.285 1.1445-1.6055 2.8789-2.6875 4.8242-3.0078 1.9453-0.31641 3.9375 0.15234 5.5352 1.3047 3.2969 2.3789 4.0547 6.9727 1.7031 10.285-1.3828 1.9414-3.6133 3.0977-5.9961 3.1094-1.5391-0.007812-3.043-0.5-4.2891-1.4062zm-170.2-23.754c-0.72266-1.832-0.68359-3.8789 0.10547-5.6875 0.79297-1.8047 2.2734-3.2188 4.1133-3.9297 3.8008-1.4609 8.0664 0.42578 9.5469 4.2188 1.4648 3.7773-0.38281 8.0352-4.1445 9.543-0.87109 0.34375-1.8008 0.51953-2.7383 0.51953-3.0312 0.003907-5.7617-1.8438-6.8828-4.6641zm185.95-1.6289 0.003907 0.003906c-1.8789-0.59766-3.4414-1.9141-4.3438-3.6641-0.90234-1.75-1.0703-3.7852-0.46875-5.6602 1.2969-3.6641 5.207-5.7031 8.9531-4.6641 1.8906 0.58203 3.4727 1.8906 4.3906 3.6445 0.91797 1.75 1.0938 3.7969 0.49609 5.6797-1.0078 3.207-4.043 5.3359-7.4023 5.1797-0.66016-0.085937-1.3086-0.25781-1.9219-0.51562zm-193.35-29.375c-0.125-2.0391 0.60156-4.0352 2.0039-5.5195 1.4023-1.4883 3.3516-2.3281 5.3945-2.3242 1.9648-0.14062 3.9023 0.50391 5.3906 1.7969 1.4844 1.2891 2.3945 3.1211 2.5273 5.0859 0.12109 1.9648-0.54297 3.8945-1.8477 5.3672-1.3047 1.4688-3.1445 2.3633-5.1094 2.4766h-0.96094c-3.8906 0.007813-7.125-3-7.3984-6.8828zm192.39-6.8086c0-4.0859 3.3125-7.3984 7.4023-7.3984 1.9609 0 3.8438 0.78125 5.2305 2.168 1.3867 1.3867 2.168 3.2695 2.168 5.2305 0 1.9648-0.78125 3.8477-2.168 5.2344-1.3867 1.3867-3.2695 2.168-5.2305 2.168-4.0898 0-7.4023-3.3125-7.4023-7.4023zm-183.96-15.832c-1.9141-0.45703-3.5703-1.6602-4.5977-3.3398-1.0273-1.6797-1.3438-3.7031-0.875-5.6172 0.98047-3.9609 4.9883-6.3789 8.9531-5.3984 1.9141 0.45312 3.5703 1.6562 4.5977 3.3359 1.0273 1.6797 1.3438 3.7031 0.875 5.6172-0.83203 3.3828-3.9141 5.7227-7.3984 5.6211zm9.25-28.117v-0.003906c-3.4609-2.1328-4.5508-6.6602-2.4414-10.137 2.1367-3.4609 6.6602-4.5508 10.137-2.4414 3.4609 2.1328 4.5547 6.6602 2.4414 10.137-1.3359 2.1953-3.7148 3.5391-6.2891 3.5508-1.3594-0.007812-2.6914-0.39062-3.8477-1.1094zm17.316-23.902v-0.003907c-2.6758-3.0859-2.3438-7.7539 0.73828-10.434 3.0859-2.6719 7.7578-2.3438 10.434 0.74219s2.3438 7.7539-0.73828 10.434c-1.3281 1.1719-3.0352 1.8281-4.8086 1.8477-2.1641 0-4.2188-0.94531-5.625-2.5898zm23.754-17.609v-0.003906c-1.6016-3.7383 0.11719-8.0703 3.8477-9.6953 1.8047-0.78906 3.8516-0.82812 5.6836-0.10547 1.832 0.72266 3.3047 2.1445 4.082 3.9531 0.83984 1.8242 0.90625 3.9062 0.17969 5.7734-0.72656 1.8711-2.1797 3.3672-4.0273 4.1445-0.92969 0.42188-1.9375 0.64844-2.957 0.66406-3.0273-0.039062-5.7227-1.9141-6.8086-4.7344zm27.973-9.5469-0.003906-0.003907c-0.38672-4.0664 2.5938-7.6758 6.6602-8.0664 4.0664-0.38281 7.6758 2.5977 8.0664 6.6602 0.38672 4.0664-2.5938 7.6758-6.6602 8.0664h-0.66406c-3.8164 0.019531-7.0195-2.8633-7.4023-6.6602z"/>
 </g>
</svg>
